<svg xmlns="http://www.w3.org/2000/svg" xmlns:xlink="http://www.w3.org/1999/xlink" width="500" zoomAndPan="magnify" viewBox="0 0 375 374.999991" height="500" preserveAspectRatio="xMidYMid meet" version="1.0"><defs><clipPath id="id1"><path d="M 75.09375 51 L 254 51 L 254 306 L 75.09375 306 Z M 75.09375 51 " clip-rule="nonzero"/></clipPath><clipPath id="id2"><path d="M 123 40.644531 L 211 40.644531 L 211 256 L 123 256 Z M 123 40.644531 " clip-rule="nonzero"/></clipPath><clipPath id="id3"><path d="M 98 114 L 300.09375 114 L 300.09375 334.644531 L 98 334.644531 Z M 98 114 " clip-rule="nonzero"/></clipPath></defs><g clip-path="url(#id1)"><path fill="#ffffff" d="M 110.417969 216.128906 L 110.417969 51.769531 L 75.09375 82.015625 L 75.09375 216.128906 C 75.09375 265.152344 115.230469 305.203125 164.242188 305.203125 C 213.253906 305.203125 253.300781 265.152344 253.300781 216.128906 L 253.300781 122.527344 L 217.972656 152.773438 L 217.972656 216.128906 C 217.972656 245.730469 193.742188 269.871094 164.242188 269.871094 C 134.648438 269.871094 110.417969 245.730469 110.417969 216.128906 Z M 110.417969 216.128906 " fill-opacity="1" fill-rule="evenodd"/></g><g clip-path="url(#id2)"><path fill="#ffffff" d="M 123.089844 134.179688 L 123.089844 208.082031 C 123.089844 234.351562 136.128906 255.164062 164.242188 255.164062 C 187.730469 255.164062 207.429688 237.773438 210.945312 215.207031 C 207.890625 226.488281 197.441406 234.8125 185.140625 234.8125 C 170.4375 234.8125 158.414062 222.789062 158.414062 208.082031 L 158.414062 70.730469 L 123.273438 40.671875 L 123.089844 40.855469 Z M 123.089844 134.179688 " fill-opacity="1" fill-rule="evenodd"/></g><g clip-path="url(#id3)"><path fill="#ffffff" d="M 264.765625 114.757812 L 264.765625 222.144531 C 264.765625 274.863281 219.914062 317.964844 164.980469 317.964844 C 139.550781 317.964844 116.152344 308.714844 98.488281 293.546875 C 119.484375 318.519531 150.925781 334.613281 185.972656 334.613281 C 248.765625 334.613281 300.09375 283.1875 300.09375 220.476562 L 300.09375 145.003906 Z M 264.765625 114.757812 " fill-opacity="1" fill-rule="evenodd"/></g></svg>